<?xml version="1.0" standalone="no"?>
<!DOCTYPE svg PUBLIC "-//W3C//DTD SVG 20010904//EN"
 "http://www.w3.org/TR/2001/REC-SVG-20010904/DTD/svg10.dtd">
<svg version="1.0" xmlns="http://www.w3.org/2000/svg"
 width="128.000000pt" height="128.000000pt" viewBox="0 0 128.000000 128.000000"
 preserveAspectRatio="xMidYMid meet">
<metadata>
Created by potrace 1.11, written by Peter Selinger 2001-2013
</metadata>
<g transform="translate(0.000000,128.000000) scale(0.100000,-0.100000)"
fill="#000000" stroke="none">
<path d="M857 873 c-29 -38 -75 -98 -101 -135 -26 -38 -49 -68 -50 -68 -2 0
-29 36 -60 80 -50 70 -76 95 -76 74 0 -3 27 -44 60 -91 l60 -86 -23 -31 c-119
-158 -120 -160 -92 -150 8 3 40 42 72 86 l57 79 18 -23 c10 -13 34 -46 52 -74
37 -55 63 -80 72 -71 3 3 -24 46 -61 96 l-67 91 34 48 c78 108 169 242 164
242 -3 0 -29 -30 -59 -67z"/>
<path d="M0 644 c0 -116 4 -184 10 -184 12 0 12 0 12 188 1 78 2 142 3 142 1
0 63 -89 139 -197 75 -109 149 -211 163 -228 l26 -30 -19 31 c-78 129 -302
453 -316 457 -17 5 -18 -8 -18 -179z"/>
<path d="M304 821 c-2 -2 -4 -84 -4 -181 l0 -176 125 -1 c92 0 123 3 116 11
-6 7 -45 11 -105 10 -52 0 -98 2 -103 5 -5 3 -8 39 -9 79 l0 72 103 0 c135 0
135 18 1 22 l-102 3 -2 68 c0 42 3 67 10 68 6 1 53 2 105 3 55 0 96 5 98 11 3
10 -223 16 -233 6z"/>
<path d="M865 821 c-13 -13 1 -17 58 -16 l62 0 3 -172 c1 -104 6 -173 12 -173
6 0 10 66 10 170 0 106 4 170 10 171 6 1 33 2 60 3 28 0 49 5 48 11 -3 10
-254 16 -263 6z"/>
<path d="M1190 536 c0 -30 -3 -37 -15 -32 -8 3 -15 1 -15 -4 0 -6 9 -10 19
-10 20 0 32 23 28 52 -6 35 -17 30 -17 -6z"/>
<path d="M1227 558 c-2 -7 7 -23 22 -36 l26 -23 -30 6 c-23 5 -27 4 -19 -5 7
-7 20 -10 30 -8 27 5 30 35 5 43 -12 3 -21 11 -21 16 0 6 9 7 21 4 15 -5 19
-4 15 4 -10 15 -43 14 -49 -1z"/>
</g>
</svg>
